<?xml version="1.0" standalone="no"?>
<!DOCTYPE svg PUBLIC "-//W3C//DTD SVG 20010904//EN"
 "http://www.w3.org/TR/2001/REC-SVG-20010904/DTD/svg10.dtd">
<svg version="1.0" xmlns="http://www.w3.org/2000/svg"
 width="512.000000pt" height="512.000000pt" viewBox="0 0 512.000000 512.000000"
 preserveAspectRatio="xMidYMid meet">
<metadata>
Created by potrace 1.14, written by Peter Selinger 2001-2017
</metadata>
<g transform="translate(0.000000,512.000000) scale(0.100000,-0.100000)"
fill="#000000" stroke="none">
<path d="M1447 3984 c-1 -1 -27 -3 -57 -5 -100 -5 -94 7 -86 -153 4 -78 9
-154 11 -171 2 -16 6 -52 9 -79 3 -26 8 -51 11 -55 4 -3 74 -6 156 -6 125 0
149 -2 150 -15 1 -21 1 -162 0 -176 -1 -6 -27 -12 -63 -13 -65 -3 -75 -3 -191
-15 -76 -8 -108 -13 -114 -19 -10 -11 -14 -65 -13 -204 l0 -152 -125 3 c-69 1
-125 2 -126 2 0 -1 -3 -48 -6 -106 -3 -58 -7 -107 -8 -109 -2 -1 -21 -4 -42
-6 -54 -3 -140 -15 -198 -25 -27 -6 -61 -11 -75 -13 -20 -3 -26 -11 -31 -39
-6 -38 -2 -655 5 -848 3 -63 5 -138 5 -167 1 -50 2 -52 34 -59 66 -16 414 1
447 21 4 2 5 148 4 324 l-2 321 21 1 c12 1 34 2 48 3 14 2 35 -1 46 -5 23 -9
24 -19 27 -415 1 -137 5 -255 9 -261 6 -10 88 -30 162 -38 22 -3 78 -10 125
-16 47 -6 97 -12 112 -13 37 -3 41 -9 44 -58 8 -143 15 -217 24 -244 l10 -30
88 -4 c225 -8 613 -2 632 10 15 9 18 376 4 390 -9 9 -232 21 -446 23 -144 2
-130 -7 -131 90 0 59 9 66 83 68 30 1 78 3 105 4 121 6 659 18 859 19 l220 1
2 -72 c3 -55 0 -72 -11 -77 -8 -3 -108 -8 -222 -12 -115 -3 -219 -7 -233 -9
-14 -1 -44 -3 -67 -4 -35 -1 -42 -5 -50 -28 -14 -40 -17 -389 -4 -397 11 -7
279 -8 421 -1 288 13 347 17 364 22 17 5 18 13 12 130 -3 69 -9 129 -12 134
-9 15 14 18 218 21 142 3 201 7 210 16 10 10 13 97 13 380 l0 367 97 2 c54 1
100 -2 103 -7 3 -6 8 -159 9 -340 2 -182 6 -334 9 -337 20 -20 370 -33 381
-14 8 12 25 169 31 281 3 58 8 134 10 170 7 93 17 429 17 534 -1 61 -5 92 -13
97 -7 4 -47 11 -89 15 -41 4 -78 9 -82 10 -5 1 -39 2 -78 3 l-70 1 0 144 c0
127 -2 145 -17 150 -10 4 -76 10 -148 13 -71 3 -132 8 -135 10 -3 3 -4 103 -3
223 l2 218 -37 7 c-20 4 -46 9 -57 10 -28 5 -182 14 -360 21 -82 3 -151 7
-153 9 -8 7 -7 77 1 82 6 3 93 7 195 9 101 2 186 5 189 7 9 10 19 111 29 293
l6 121 -49 9 c-54 10 -319 10 -403 0 -30 -4 -57 -11 -61 -17 -7 -11 -9 -58
-12 -219 l-2 -95 -85 -1 c-189 -3 -280 -8 -292 -15 -16 -10 -18 -26 -25 -164
-3 -66 -7 -122 -9 -124 -5 -6 -293 -6 -442 -1 -60 2 -107 9 -112 15 -12 14
-17 52 -25 169 -3 49 -8 93 -11 98 -4 6 -71 8 -170 5 l-164 -4 -1 36 c0 20 -2
72 -4 116 -2 44 -4 110 -4 147 -1 60 -3 67 -23 74 -20 6 -315 13 -321 8z"/>
</g>
</svg>
